<svg width="100" height="77" viewBox="0 0 100 77" fill="none" xmlns="http://www.w3.org/2000/svg">
<rect width="100" height="77" fill="#333333"/>
<path fill-rule="evenodd" clip-rule="evenodd" d="M23.0699 21L29.3999 25.9974L19.2753 38.8219L29.3999 51.6465L23.0699 56.6439L9 38.8219L23.0699 21Z" fill="#ABC3FF"/>
<path fill-rule="evenodd" clip-rule="evenodd" d="M31.0475 31.3259L39.1996 21L45.5295 25.9974L37.3775 36.3233C36.2209 37.7883 36.2209 39.8556 37.3775 41.3206L45.5295 51.6465L39.1996 56.6439L31.0475 46.318C27.5777 41.9229 27.5777 35.721 31.0475 31.3259Z" fill="white"/>
<path fill-rule="evenodd" clip-rule="evenodd" d="M77.1625 21L70.8325 25.9974L80.9572 38.8219L70.8325 51.6465L77.1625 56.6439L91.2324 38.8219L77.1625 21Z" fill="#ABC3FF"/>
<path fill-rule="evenodd" clip-rule="evenodd" d="M69.1849 31.3259L61.0329 21L54.7029 25.9974L62.8549 36.3233C64.0115 37.7883 64.0115 39.8556 62.8549 41.3206L54.7029 51.6465L61.0329 56.6439L69.1849 46.318C72.6547 41.9229 72.6547 35.721 69.1849 31.3259Z" fill="white"/>
</svg>
