<svg width="104" height="103" viewBox="0 0 104 103" fill="none" xmlns="http://www.w3.org/2000/svg">
<path d="M41.619 51.37C38.659 51.37 36.3773 50.5313 34.774 48.854C33.1707 47.152 32.369 44.6607 32.369 41.38C32.369 38.1487 33.146 35.682 34.7 33.98C36.254 32.2533 38.437 31.39 41.249 31.39C42.5563 31.39 43.802 31.4763 44.986 31.649C45.4547 31.723 45.837 31.945 46.133 32.315C46.4537 32.685 46.614 33.1167 46.614 33.61C46.614 34.0293 46.4413 34.3623 46.096 34.609C45.7753 34.8557 45.4053 34.9297 44.986 34.831C43.7773 34.5597 42.6303 34.424 41.545 34.424C39.843 34.424 38.5603 34.979 37.697 36.089C36.8583 37.199 36.439 38.9627 36.439 41.38C36.439 43.8467 36.883 45.6227 37.771 46.708C38.6837 47.7933 40.065 48.336 41.915 48.336C43.0743 48.336 44.1843 48.1757 45.245 47.855C45.6397 47.7317 45.9973 47.7933 46.318 48.04C46.6387 48.262 46.799 48.5703 46.799 48.965C46.799 49.4583 46.6387 49.9023 46.318 50.297C45.9973 50.6917 45.6027 50.9383 45.134 51.037C43.95 51.259 42.7783 51.37 41.619 51.37Z" fill="#5282FF"/>
<path d="M59.5322 34.35C56.3255 34.35 54.7222 36.6933 54.7222 41.38C54.7222 43.748 55.1415 45.5117 55.9802 46.671C56.8435 47.8303 58.0275 48.41 59.5322 48.41C60.8395 48.41 61.9619 47.9783 62.8992 47.115C63.8612 46.2517 64.3422 45.265 64.3422 44.155V38.605C64.3422 37.495 63.8612 36.5083 62.8992 35.645C61.9619 34.7817 60.8395 34.35 59.5322 34.35ZM58.6072 51.37C56.3625 51.37 54.5002 50.4697 53.0202 48.669C51.5649 46.8683 50.8372 44.4387 50.8372 41.38C50.8372 38.2227 51.5402 35.7683 52.9462 34.017C54.3769 32.2657 56.2639 31.39 58.6072 31.39C60.8025 31.39 62.6772 32.1793 64.2312 33.758C64.2559 33.7827 64.2805 33.795 64.3052 33.795C64.3299 33.795 64.3422 33.7827 64.3422 33.758V25.174C64.3422 24.6313 64.5272 24.175 64.8972 23.805C65.2919 23.435 65.7605 23.25 66.3032 23.25C66.8459 23.25 67.3022 23.435 67.6722 23.805C68.0422 24.175 68.2272 24.6313 68.2272 25.174V49.187C68.2272 49.6803 68.0422 50.112 67.6722 50.482C67.3269 50.8273 66.9075 51 66.4142 51C65.9209 51 65.4892 50.8273 65.1192 50.482C64.7739 50.112 64.5889 49.6803 64.5642 49.187L64.5272 48.632C64.5272 48.6073 64.5149 48.595 64.4902 48.595C64.4655 48.595 64.4409 48.6073 64.4162 48.632C63.5035 49.6433 62.6032 50.3587 61.7152 50.778C60.8272 51.1727 59.7912 51.37 58.6072 51.37Z" fill="#5282FF"/>
<path d="M38.994 78.445C38.624 78.815 38.1677 79 37.625 79C37.0823 79 36.6137 78.815 36.219 78.445C35.849 78.075 35.664 77.6187 35.664 77.076V61.573C35.664 61.0797 35.8367 60.6603 36.182 60.315C36.552 59.945 36.9837 59.76 37.477 59.76C37.9703 59.76 38.3897 59.945 38.735 60.315C39.105 60.6603 39.3023 61.0797 39.327 61.573L39.364 62.128C39.364 62.1527 39.3763 62.165 39.401 62.165C39.4257 62.165 39.4503 62.1527 39.475 62.128C41.2263 60.3027 43.2243 59.39 45.469 59.39C47.7137 59.39 49.354 60.0313 50.39 61.314C51.426 62.572 51.944 64.644 51.944 67.53V77.113C51.944 77.631 51.759 78.075 51.389 78.445C51.019 78.815 50.575 79 50.057 79C49.539 79 49.0827 78.815 48.688 78.445C48.318 78.075 48.133 77.631 48.133 77.113V68.085C48.133 65.865 47.8617 64.3603 47.319 63.571C46.7763 62.757 45.7897 62.35 44.359 62.35C43.1997 62.35 42.102 62.868 41.066 63.904C40.0547 64.9153 39.549 66.0007 39.549 67.16V77.076C39.549 77.6187 39.364 78.075 38.994 78.445Z" fill="white"/>
<path d="M56.9231 63.46C56.5038 63.46 56.1461 63.312 55.8501 63.016C55.5788 62.72 55.4431 62.3747 55.4431 61.98C55.4431 61.5853 55.5788 61.24 55.8501 60.944C56.1461 60.648 56.5038 60.5 56.9231 60.5H58.9951C59.2171 60.5 59.3281 60.389 59.3281 60.167V55.394C59.3281 54.8513 59.5131 54.395 59.8831 54.025C60.2531 53.655 60.7094 53.47 61.2521 53.47C61.7948 53.47 62.2511 53.655 62.6211 54.025C63.0158 54.395 63.2131 54.8513 63.2131 55.394V60.167C63.2131 60.389 63.3241 60.5 63.5461 60.5H68.3931C68.8124 60.5 69.1578 60.648 69.4291 60.944C69.7251 61.24 69.8731 61.5853 69.8731 61.98C69.8731 62.3747 69.7251 62.72 69.4291 63.016C69.1578 63.312 68.8124 63.46 68.3931 63.46H63.5461C63.3241 63.46 63.2131 63.571 63.2131 63.793V72.34C63.2131 74.0173 63.4104 75.115 63.8051 75.633C64.1998 76.151 64.9891 76.41 66.1731 76.41C66.7404 76.41 67.2831 76.373 67.8011 76.299C68.1958 76.2497 68.5411 76.336 68.8371 76.558C69.1578 76.78 69.3181 77.076 69.3181 77.446C69.3181 77.89 69.1701 78.2847 68.8741 78.63C68.5781 78.9753 68.2081 79.1727 67.7641 79.222C66.7281 79.3207 65.9511 79.37 65.4331 79.37C63.1638 79.37 61.5728 78.889 60.6601 77.927C59.7721 76.965 59.3281 75.226 59.3281 72.71V63.793C59.3281 63.571 59.2171 63.46 58.9951 63.46H56.9231Z" fill="white"/>
<path fill-rule="evenodd" clip-rule="evenodd" d="M13.5378 40.4509L17.4622 43.5491L11.1852 51.5L17.4622 59.4509L13.5378 62.5491L4.81481 51.5L13.5378 40.4509Z" fill="#5282FF"/>
<path fill-rule="evenodd" clip-rule="evenodd" d="M18.4838 46.8527L23.5378 40.4509L27.4622 43.5491L22.4082 49.9509C21.6911 50.8592 21.6911 52.1408 22.4082 53.0491L27.4622 59.4509L23.5378 62.5491L18.4838 56.1473C16.3326 53.4225 16.3326 49.5775 18.4838 46.8527Z" fill="white"/>
<path fill-rule="evenodd" clip-rule="evenodd" d="M90.9622 40.4509L87.0378 43.5491L93.3148 51.5L87.0378 59.4509L90.9622 62.5491L99.6852 51.5L90.9622 40.4509Z" fill="#5282FF"/>
<path fill-rule="evenodd" clip-rule="evenodd" d="M86.0162 46.8527L80.9622 40.4509L77.0378 43.5491L82.0918 49.9509C82.8089 50.8592 82.8089 52.1408 82.0918 53.0491L77.0378 59.4509L80.9622 62.5491L86.0162 56.1473C88.1674 53.4225 88.1674 49.5775 86.0162 46.8527Z" fill="white"/>
</svg>
