<svg width="20" height="20" viewBox="0 0 20 20" fill="none" xmlns="http://www.w3.org/2000/svg">
<path d="M19.8974 19.6001C19.8299 19.7217 19.7327 19.8227 19.6158 19.8929C19.4988 19.9631 19.3661 20 19.231 20H0.768484C0.633516 19.9999 0.500959 19.9628 0.384124 19.8925C0.26729 19.8223 0.17029 19.7213 0.102866 19.5997C0.0354414 19.4781 -3.46252e-05 19.3402 2.53589e-08 19.1999C3.46759e-05 19.0596 0.0355787 18.9217 0.103063 18.8002C1.56757 16.1675 3.82442 14.2798 6.45822 13.3849C5.15542 12.5785 4.14323 11.3497 3.57709 9.88717C3.01094 8.42469 2.92215 6.8094 3.32434 5.28936C3.72653 3.76932 4.59746 2.42858 5.8034 1.47304C7.00934 0.517506 8.48359 0 9.99976 0C11.5159 0 12.9902 0.517506 14.1961 1.47304C15.4021 2.42858 16.273 3.76932 16.6752 5.28936C17.0774 6.8094 16.9886 8.42469 16.4224 9.88717C15.8563 11.3497 14.8441 12.5785 13.5413 13.3849C16.1751 14.2798 18.432 16.1675 19.8965 18.8002C19.9641 18.9217 19.9998 19.0596 20 19.2C20.0002 19.3404 19.9648 19.4784 19.8974 19.6001Z" fill="#5282FF"/>
</svg>
